**ABCDEFGHIJKLMNOPQRSTUVWXYZabcdefghijklmnopqrstuvwxyz**************************
**PARASOLID !"#$%&'()*+,-./:;<=>?@[\]^_`{|}~0123456789**************************
**PART1;
MC=AMD64;
MC_MODEL=Intel64 Family 6 Model 23 Stepping 6, GenuineIntel;
MC_ID=unknown;
OS=Windows_NT;
OS_RELEASE=unknown;
FRU=Parasolid Version 22.1, build 272,  4- 5-2011;
APPL=SolidWorks 2011-2011157;
SITE=;
USER=unknown;
FORMAT=text;
GUISE=transmit;
KEY=Assem 2 rev x.375;
FILE=Assem 2 rev x.375.x_t;
DATE=Thu Jul 19 15:15:10 2012;
**PART2;
SCH=SCH_2201272_20000;
USFLD_SIZE=0;
**PART3;
**END_OF_HEADER*****************************************************************
T51 : TRANSMIT FILE created by modeller version 220127223 SCH_2201272_20000_1300
6186 0 10 255 1 7 2 3 0 0 0 0 0 1e3 1e-8 0 0 0 1 0 1 4 81 255 1 2 7 5 1 0 0 0 0
 0 70 11 CI9 list_type0 0 1 uI10 notransmit0 0 1 lCCCDCCDI12 finger_index0 0 1 d
I12 finger_block1012 0 CZ3 0 4 T1 0 0 1 20 1 6 6 11 255 4 5 0 1 7 8 1 9 0 0 0 12
 27 CCCCCCCCCCCCCCCCCCCCCCCA16 index_map_offset0 0 1 dA9 index_map82 0 A17 node_
id_index_map82 0 A20 schema_embedding_map82 0 Z7 114 10 11 0 0 0 0 1e3 1e-8 4 12
 0 1 0 1 1 13 14 15 16 17 18 19 0 0 0 0 100 255 8 6 4 0 0 1 0 0 0 1 0 0 0 1 0 0
 .003175 1 1 ?11 9 3 0 1 12 20 1 21 4 0 0 12 12 69 22 23 0 0 0 0 1e3 1e-8 9 24 7
 1 0 1 1 25 26 27 0 28 29 0 0 0 0 0 100 20 4 9 0 0 1 0 0 0 1 0 0 0 1 .17 -157209
315010398e-32 0 1 1 ?11 21 1 0 1 24 30 1 0 9 0 0 12 24 459 31 32 0 0 0 0 1e3 1e-
8 21 33 12 1 0 1 1 34 35 36 37 38 39 40 0 0 0 0 100 30 2 21 0 0 1 0 0 0 1 0 0 0
 1 0 0 0 1 0 ?81 1 31 459 5 24 0 0 0 0 41 70 32 0 4 T24 0 0 3 20 1 42 42 13 255
 34 94 0 24 0 43 0 0 44 0 67 255 35 93 0 45 46 0 0 +47 0 0 -1 ?31 255 36 310 0 4
8 49 0 0 +.17 -157209315010398e-32 .003175 0 0 1 1 0 0 .00635 29 255 37 318 0 40
 50 0 .1597003 .00743008613072554 .009525 19 255 38 28 0 24 44 0 51 V16 255 39 7
7 0 ?52 0 53 49 0 0 24 18 255 40 316 0 54 0 55 37 ?24 17 255 54 0 56 57 58 40 59
 60 0 61 +18 55 25 0 62 40 63 64 ?24 17 62 0 65 66 67 55 68 69 0 70 +18 63 22 0
 67 55 71 72 ?24 29 64 27 0 55 72 73 .156833271545392 .02125175902843385 .009525
 29 72 24 0 63 74 64 .156833271545392 -.0212517590284337 .009525 29 73 73 0 75 6
4 76 .00947908958096559 .02313324146582205 0 18 75 64 0 77 78 79 73 ?24 29 76 72
 0 78 73 80 .00947908958096553 -.0231332414658221 0 18 78 63 0 81 82 75 76 ?24 2
9 80 71 0 82 76 50 .156833271545392 -.0212517590284337 0 18 82 62 0 83 84 78 80
 ?24 29 50 70 0 84 80 37 .156833271545392 .02125175902843385 0 18 84 61 0 85 86
 82 50 ?24 17 85 0 87 70 88 84 89 90 0 91 +18 86 16 0 92 71 84 93 ?24 17 92 0 94
 52 95 86 96 97 0 66 -18 71 19 0 96 63 86 74 ?24 29 93 18 0 86 98 74 .0094790895
8096559 .02313324146582205 .009525 29 98 381 0 99 100 93 .1597003 -.007430086130
72555 .009525 29 74 21 0 71 93 72 .00947908958096553 -.0231332414658221 .009525
 18 99 345 0 58 101 0 98 ?24 29 100 383 0 79 102 98 .1597003 -.00743008613072555
 .003175 18 79 342 0 103 75 101 100 ?24 29 102 384 0 101 0 100 .1597003 .0074300
8613072555 .003175 18 101 344 0 57 79 99 102 ?24 17 57 0 56 104 54 101 61 105 0
 106 -15 255 56 355 0 54 107 0 17 104 0 56 58 57 79 106 108 0 109 -17 61 0 110 1
11 112 40 57 105 0 113 +16 105 330 0 ?61 114 115 116 0 0 24 17 106 0 117 109 109
 101 104 108 0 112 +15 117 363 0 106 118 0 17 109 0 117 106 106 79 112 115 0 0 +
16 108 327 0 ?106 115 119 120 0 0 24 17 112 0 110 61 103 101 109 115 0 0 -15 110
 359 0 111 121 0 17 103 0 110 112 111 79 58 114 0 104 -16 115 331 0 ?109 105 108
 122 0 0 24 30 255 122 379 0 115 120 123 0 +.1597003 .00743008613072555 .003175
 0 -1 0 31 120 380 0 108 0 122 0 +.17 -157209315010398e-32 .003175 0 0 1 1 0 0 .
0127 31 123 378 0 60 122 124 0 +.17 -157209315010398e-32 .009525 0 0 1 1 0 0 .01
27 16 60 336 0 ?54 119 0 123 0 0 24 30 124 377 0 119 123 125 0 +.1597003 .007430
08613072555 .009525 0 -1 0 16 119 339 0 ?111 108 60 124 0 0 24 30 125 376 0 114
 124 116 0 +.1597003 -.00743008613072555 .003175 0 0 1 16 114 334 0 ?58 48 105 1
25 0 0 24 30 116 375 0 105 125 126 0 +.1597003 .00743008613072555 .003175 0 0 1
 31 126 293 0 127 116 128 0 +0 -.0113919 0 0 0 1 1 0 0 .00238125 16 127 270 0 ?1
29 130 131 126 0 0 24 31 128 292 0 131 126 132 0 +0 -.0113919 .009525 0 0 1 1 0
 0 .00238125 16 131 273 0 ?133 127 48 128 0 0 24 31 132 255 0 134 128 135 0 +0 .
0113919 0 0 0 1 1 0 0 .00238125 16 134 232 0 ?136 137 130 132 0 0 24 31 135 254
 0 130 132 138 0 +0 .0113919 .009525 0 0 1 1 0 0 .00238125 16 130 235 0 ?139 134
 127 135 0 0 24 31 138 180 0 137 135 140 0 +.17 -157209315010398e-32 0 0 0 1 1 0
 0 .00635 16 137 158 0 ?141 142 134 138 0 0 24 31 140 143 0 143 138 144 0 +0 0 .
009525 0 0 1 1 0 0 .00635 16 143 123 0 ?145 146 142 140 0 0 24 31 144 142 0 142
 140 47 0 +0 0 0 0 0 1 1 0 0 .00635 16 142 120 0 ?147 143 137 144 0 0 24 32 255
 47 5 0 148 144 149 150 +.085 .0411534510114768 .009525 0 0 -1 1 -30694921277126
55e-31 0 .090424 .032766 16 148 4 0 ?66 97 90 47 0 0 24 31 149 8 0 97 47 151 0 +
0 0 .009525 0 0 1 1 0 0 .025 141 255 150 35 150 150 47 16 97 7 0 ?96 152 148 149
 0 0 24 32 151 11 0 152 149 153 154 +.085 -.0411534510114768 .009525 0 0 -1 1 30
69492127712655e-31 0 .090424 .032766 16 152 10 0 ?67 69 97 151 0 0 24 31 153 14
 0 69 151 155 0 +.17 -157209315010398e-32 .009525 0 0 1 -1 0 0 .025 141 154 156
 154 154 151 67 156 91 0 157 158 46 0 +151 0 0 -1 ?14 255 157 81 159 ?160 161 16
2 34 156 -0 0 160 161 51 51 255 158 90 0 160 163 156 0 -.17 -157209315010398e-32
 .009525 0 0 -1 .025 -1 0 0 51 46 92 0 161 156 35 0 -0 0 .009525 0 0 -1 .025 -1
 0 0 14 161 83 164 ?157 45 94 34 46 -0 0 157 45 51 81 1 164 450 165 161 166 0 16
7 159 168 14 45 85 167 ?161 169 170 34 35 -0 0 161 169 51 15 94 82 0 81 161 0 13
 51 29 0 0 0 0 0 0 38 43 14 43 311 171 ?172 0 173 34 174 +0 0 172 0 51 81 1 171
 446 165 43 175 0 0 176 177 14 172 155 176 ?169 43 178 34 179 -0 0 169 43 51 15
 173 168 0 180 43 181 51 174 177 0 43 182 183 0 -.17 -157209315010398e-32 .00952
5 0 0 -1 .00635 -1 0 0 51 182 251 0 184 185 174 0 +0 .0113919 0 0 0 1 .00238125
 1 0 0 51 183 139 0 186 174 179 0 -0 0 .009525 0 0 -1 .00635 -1 0 0 14 186 126 1
87 ?184 160 188 34 183 +0 0 184 160 51 50 255 179 2 0 172 183 163 0 +.085 .04115
34510114768 .009525 0 0 -1 -1 0 0 50 163 65 0 169 179 158 0 +.085 .0411534510114
768 0 0 0 -1 -1 0 0 14 169 149 189 ?45 172 190 34 163 +0 0 45 172 51 81 1 189 44
8 165 169 191 0 176 167 192 15 190 259 0 129 169 193 17 129 0 190 129 129 0 194
 127 0 0 +15 193 221 0 136 169 195 17 136 0 193 136 136 0 196 134 0 0 +15 195 10
8 0 147 169 197 17 147 0 195 147 147 0 198 142 0 0 +15 197 44 0 199 169 200 17 1
99 0 197 89 77 84 201 146 0 0 -15 200 146 0 141 169 0 17 141 0 200 141 141 0 180
 137 0 0 +17 180 0 173 180 180 0 141 137 0 0 -17 89 0 197 202 199 82 85 90 0 0 -
17 77 0 197 199 202 75 81 203 0 52 -17 201 0 170 204 91 75 199 146 0 0 +16 146 5
7 0 ?201 203 143 155 0 0 24 16 203 53 0 ?81 205 146 206 0 0 24 32 155 69 0 146 1
53 206 0 +.085 .0411534510114768 0 0 0 -1 1 -3069492127712655e-31 0 .090424 .032
766 31 206 68 0 203 155 207 0 +0 0 0 0 0 1 1 0 0 .025 32 207 67 0 205 206 208 0
 +.085 -.0411534510114768 0 0 0 -1 1 3069492127712655e-31 0 .090424 .032766 16 2
05 49 0 ?83 90 203 207 0 0 24 31 208 66 0 90 207 209 0 +.17 -157209315010398e-32
 0 0 0 1 -1 0 0 .025 16 90 45 0 ?85 148 205 208 0 0 24 30 209 86 0 210 208 211 0
 +.156833271545392 .02125175902843385 .009525 0 0 -1 16 210 74 0 ?91 212 69 209
 0 0 24 30 211 87 0 212 209 213 0 +.156833271545392 -.0212517590284337 .009525 0
 0 -1 16 212 75 0 ?88 53 210 211 0 0 24 30 213 88 0 53 211 49 0 +.00947908958096
553 -.0231332414658221 .009525 0 0 -1 16 53 76 0 ?214 39 212 213 0 0 24 30 49 89
 0 39 213 36 0 +.00947908958096559 .02313324146582205 .009525 0 0 -1 17 214 0 16
2 83 215 78 95 53 0 202 +15 162 80 0 83 157 0 17 83 0 162 216 214 82 202 205 0 8
8 +17 215 0 162 214 216 71 67 152 0 0 -17 95 0 94 92 81 71 214 53 0 215 -17 202
 0 197 77 89 78 83 205 0 0 -17 81 0 94 95 52 78 77 203 0 214 +17 52 0 94 81 92 7
5 204 39 0 201 +17 204 0 170 217 201 86 52 39 0 0 -15 170 84 0 201 45 0 17 217 0
 170 91 204 55 66 148 0 0 -17 91 0 170 201 217 84 70 210 0 199 +17 66 0 65 96 62
 86 217 148 0 204 +15 65 3 0 66 172 0 17 96 0 65 67 66 71 92 97 0 95 +17 67 0 65
 62 96 63 215 152 0 216 +17 216 0 162 215 83 63 88 212 0 68 -17 88 0 87 85 68 82
 216 212 0 89 +17 68 0 87 88 70 63 62 69 0 0 -15 87 78 0 85 160 0 17 70 0 87 68
 85 55 91 210 0 217 -16 69 13 0 ?62 210 152 153 0 0 24 14 160 79 218 ?186 157 87
 34 158 -0 0 186 157 51 81 1 218 452 165 160 219 0 159 187 220 80 255 1 165 0 22
1 8001 0 0 0 0 3 5 0 0 0 FFFFTFTFFFFFFF2 81 1 219 434 222 160 0 218 191 223 224
 81 1 159 451 165 157 225 0 164 218 226 81 1 187 453 165 186 227 0 218 228 229 8
3 255 3 220 .866666666666667 .909803921568627 1 81 1 227 430 222 186 0 187 230 1
91 231 81 1 228 454 165 184 223 0 187 232 233 83 3 229 .866666666666667 .9098039
21568627 1 14 184 238 228 ?234 186 235 34 182 -0 0 234 186 51 81 1 223 436 222 1
84 0 228 219 236 237 81 1 232 455 165 234 236 0 228 238 239 83 3 233 .8666666666
66667 .909803921568627 1 14 234 276 232 ?107 184 240 34 185 -0 0 107 184 51 81 1
 236 438 222 234 0 232 223 241 242 81 1 238 456 165 107 241 0 232 243 244 83 3 2
39 .866666666666667 .909803921568627 1 14 107 352 238 ?121 234 56 34 245 -0 0 12
1 234 51 81 1 241 440 222 107 0 238 236 246 247 81 1 243 457 165 121 246 0 238 2
48 249 83 3 244 .866666666666667 .909803921568627 1 14 121 356 243 ?118 107 110
 34 250 -0 0 118 107 51 81 1 246 442 222 121 0 243 241 251 252 81 1 248 458 165
 118 251 0 243 0 253 83 3 249 .866666666666667 .909803921568627 1 14 118 360 248
 ?0 121 254 34 255 +0 0 0 121 51 81 1 251 444 222 118 0 248 246 0 256 83 3 253 .
866666666666667 .909803921568627 1 80 1 222 257 258 9000 1 1 1 1 1 1 1 1 0 FFFFT
FTFFFFFFF1 82 255 1 256 2078736962 79 255 14 258 SWEntUnchanged15 254 362 0 259
 118 117 50 255 373 0 118 0 250 0 +.17 -157209315010398e-32 .003175 0 0 1 1 0 0
 50 250 371 0 121 255 245 0 +.1597003 .00743008613072555 .003175 -1 0 0 0 0 1 51
 245 370 0 107 250 185 0 +.17 -157209315010398e-32 .003175 0 0 1 .0127 1 0 0 51
 185 289 0 234 245 182 0 +0 -.0113919 0 0 0 1 .00238125 1 0 0 17 259 0 254 259 2
59 0 260 48 0 0 -17 260 0 181 260 260 0 259 48 0 0 +16 48 335 0 ?260 131 114 36
 0 0 24 15 181 308 0 260 43 0 82 1 252 2082538050 82 1 247 2082669122 82 1 242 1
881145916 15 240 279 0 194 234 261 17 194 0 240 194 194 0 129 127 0 0 -15 261 28
0 0 133 234 0 17 133 0 261 133 133 0 262 131 0 0 +17 262 0 263 262 262 0 133 131
 0 0 -15 263 264 0 262 172 264 15 264 226 0 265 172 266 17 265 0 264 265 265 0 1
39 130 0 0 -15 266 115 0 267 172 65 17 267 0 266 267 267 0 145 143 0 0 -17 145 0
 188 145 145 0 267 143 0 0 +15 188 129 0 145 186 268 15 268 130 0 198 186 0 17 1
98 0 268 198 198 0 147 142 0 0 -17 139 0 269 139 139 0 265 130 0 0 +15 269 242 0
 139 184 0 82 1 237 1877148220 15 235 241 0 196 184 269 17 196 0 235 196 196 0 1
36 134 0 0 -81 1 230 428 222 172 0 176 175 227 270 81 1 191 432 222 169 0 189 22
7 219 271 82 1 231 1853948473 82 1 271 1861026364 81 1 176 447 165 172 230 0 171
 189 272 81 1 175 426 222 43 0 171 273 230 274 82 1 270 1861550658 81 1 273 424
 222 45 0 167 166 175 275 82 1 274 2084897346 81 1 167 449 165 45 273 0 189 164
 276 81 1 166 422 222 161 0 164 225 273 277 82 1 275 1849098809 81 1 225 420 222
 157 0 159 0 166 278 82 1 277 1848836665 82 1 278 1848574521 83 3 276 .866666666
666667 .909803921568627 1 83 3 272 .866666666666667 .909803921568627 1 83 3 226
 .866666666666667 .909803921568627 1 82 1 224 1848312377 79 15 221 SDL/TYSA_COLO
UR83 3 192 .866666666666667 .909803921568627 1 15 178 314 0 113 172 263 17 113 0
 178 59 59 40 111 119 0 0 -17 59 0 178 113 113 99 54 60 0 0 -17 111 0 110 103 61
 99 113 119 0 59 +83 3 177 .866666666666667 .909803921568627 1 83 3 168 .8666666
66666667 .909803921568627 1 17 58 0 56 54 104 99 103 114 0 111 +19 44 95 0 24 0
 38 34 S74 4 CI16 index_map_offset0 0 1 dCCZ20 42 3 0 0 251 248 31 0 0 0 0 0 0 0
 0 0 0 0 0 0 0 0 0 0 80 1 5 279 280 8017 0 0 0 0 0 0 0 0 0 TTTTTTTTTTTTTF3 84 25
5 27 41 Bike Crank 2 rev 2011 x.37579 13 280 SDL/TYSA_NAME81 1 22 69 5 12 0 0 0
 0 281 70 23 0 4 T12 0 0 3 20 1 282 282 13 25 29 0 12 0 283 0 0 284 0 51 26 28 0
 283 285 0 0 -0 0 .0655955 0 0 -1 .00635 -1 0 0 31 27 23 0 286 287 0 0 +0 0 0 0
 0 1 1 0 0 .00635 19 28 7 0 12 284 0 288 V16 29 4 0 ?289 0 286 287 0 0 12 17 289
 0 290 289 289 0 291 29 0 0 +16 286 18 0 ?292 29 0 27 0 0 12 31 287 5 0 29 0 27
 0 +0 0 .0655955 0 0 1 1 0 0 .00635 17 292 0 293 292 292 0 294 286 0 0 +15 293 2
6 0 292 283 0 17 294 0 295 294 294 0 292 286 0 0 -15 295 17 0 294 296 0 14 296 1
6 297 ?0 298 295 25 285 -0 0 0 298 288 81 1 297 68 165 296 299 0 300 0 301 14 29
8 1 300 ?296 283 290 25 302 +0 0 296 283 288 50 285 22 0 296 302 26 0 +0 0 0 0 0
 1 1 0 0 13 288 8 0 0 0 0 0 0 28 283 14 283 25 303 ?298 0 304 25 26 -0 0 298 0 2
88 81 1 303 66 165 283 305 0 0 300 306 15 304 24 0 291 283 293 17 291 0 304 291
 291 0 289 29 0 0 -81 1 305 64 222 283 0 303 307 0 308 81 1 300 67 165 298 307 0
 303 297 309 83 3 306 .792156862745098 .819607843137255 .933333333333333 81 1 30
7 62 222 298 0 300 299 305 310 83 3 309 .792156862745098 .819607843137255 .93333
3333333333 81 1 299 60 222 296 0 297 0 307 311 82 1 310 1373634669 82 1 311 1375
076461 82 1 308 1375600749 50 302 2 0 298 0 285 0 +0 0 .0655955 0 0 1 1 0 0 15 2
90 3 0 289 298 0 83 3 301 .792156862745098 .819607843137255 .933333333333333 19
 284 30 0 12 0 28 25 S74 20 282 3 0 0 305 297 22 0 0 0 0 0 0 0 0 0 0 0 0 0 0 0 0
 0 84 11 281 pedal 0.37581 1 10 114 5 7 0 0 0 0 312 70 11 0 4 T7 0 0 3 20 1 313
 313 13 13 6 0 7 0 314 0 0 315 0 50 14 56 0 316 317 0 0 +.085 .0411534510114768
 .00635 0 0 -1 -1 0 0 31 15 61 0 18 318 0 0 +.17 -157209315010398e-32 .00635 0 0
 -1 -1 0 0 .00635 29 16 52 0 319 320 0 .1597003 .00743008613072554 0 19 17 3 0 7
 315 0 321 V16 18 20 0 ?322 0 323 15 0 0 7 18 19 24 0 324 0 325 326 ?7 17 324 0
 327 328 328 19 329 330 0 331 -18 325 23 0 328 19 319 332 ?7 29 326 50 0 19 332
 320 .1597003 .00743008613072554 .00635 29 332 49 0 325 0 326 .1597003 -.0074300
8613072555 .00635 29 320 51 0 333 326 16 .1597003 -.00743008613072555 0 18 333 2
1 0 334 319 0 320 ?7 17 334 0 335 336 329 333 337 338 0 339 +18 319 22 0 340 325
 333 16 ?7 17 340 0 341 339 342 319 331 343 0 344 +15 341 36 0 337 345 0 17 339
 0 341 337 340 333 344 323 0 346 +17 342 0 341 340 337 19 328 347 0 0 +17 331 0
 335 329 336 19 340 343 0 342 -16 343 16 0 ?340 323 347 348 0 0 7 17 344 0 349 3
46 346 319 339 323 0 336 -15 349 27 0 346 314 350 17 346 0 349 344 344 333 336 3
51 0 0 -16 323 17 0 ?339 18 343 352 0 0 7 17 336 0 335 331 334 319 346 351 0 0 +
15 335 32 0 331 353 0 16 351 12 0 ?336 347 338 354 0 0 7 16 347 15 0 ?342 343 35
1 318 0 0 7 16 338 11 0 ?334 351 330 355 0 0 7 31 354 47 0 351 352 356 0 +.17 -1
57209315010398e-32 0 0 0 1 1 0 0 .0127 30 352 46 0 323 0 354 0 +.1597003 .007430
08613072554 0 0 -1 0 31 356 48 0 357 354 348 0 +.17 -157209315010398e-32 0 0 0 1
 1 0 0 .00635 16 357 7 0 ?358 330 0 356 0 0 7 30 348 57 0 343 356 355 0 +.159700
3 .00743008613072554 .04061581678714225 0 0 -1 30 355 58 0 338 348 359 0 +.15970
03 -.00743008613072555 .04061581678714225 0 0 -1 31 359 59 0 330 355 318 0 +.17
 -157209315010398e-32 .00635 0 0 -1 -1 0 0 .0127 16 330 10 0 ?329 338 357 359 0
 0 7 30 318 60 0 347 359 15 0 +.1597003 .00743008613072554 .00635 0 1 0 17 329 0
 335 334 331 325 324 330 0 337 +17 337 0 341 342 339 325 334 338 0 0 -17 358 0 3
50 358 358 0 360 357 0 0 +15 350 28 0 358 314 0 17 360 0 361 360 360 0 358 357 0
 0 -15 361 41 0 360 362 0 14 362 37 363 ?316 345 364 13 317 +0 0 316 345 321 81
 1 363 112 165 362 365 0 366 367 368 14 316 42 367 ?0 362 369 13 14 -0 0 0 362 3
21 14 345 33 366 ?362 353 341 13 370 -0 0 362 353 321 15 364 40 0 371 362 361 51
 317 55 0 362 372 14 0 -.17 -157209315010398e-32 .04061581678714225 0 0 -1 .0063
5 -1 0 0 13 321 4 0 0 0 0 0 0 17 314 14 314 25 373 ?353 0 349 13 374 -0 0 353 0
 321 81 1 373 109 165 314 375 0 0 376 377 14 353 29 376 ?345 314 335 13 372 -0 0
 345 314 321 50 374 45 0 314 0 370 0 +.17 -157209315010398e-32 0 0 0 1 1 0 0 50
 370 53 0 345 374 372 0 +.1597003 .00743008613072554 .04061581678714225 1 0 0 0
 0 -1 51 372 54 0 353 370 317 0 -.17 -157209315010398e-32 .04061581678714225 0 0
 -1 .0127 -1 0 0 81 1 376 110 165 353 378 0 373 366 379 81 1 378 107 222 353 0 3
76 375 0 380 81 1 366 111 165 345 381 0 376 363 382 83 3 379 .792156862745098 .8
19607843137255 .933333333333333 81 1 381 103 222 345 0 366 383 375 384 83 3 382
 .792156862745098 .819607843137255 .933333333333333 81 1 383 101 222 316 0 367 3
65 381 385 81 1 375 105 222 314 0 373 381 378 386 82 1 384 918421607 82 1 386 91
9011431 81 1 367 113 165 316 383 0 363 0 387 81 1 365 99 222 362 0 363 0 383 388
 82 1 385 945815655 82 1 388 920322151 83 3 387 .792156862745098 .81960784313725
5 .933333333333333 82 1 380 916783207 83 3 377 .792156862745098 .819607843137255
 .933333333333333 17 371 0 364 371 371 0 322 18 0 0 -17 322 0 369 322 322 0 371
 18 0 0 +15 369 43 0 322 316 327 15 327 44 0 328 316 0 17 328 0 327 324 324 325
 342 347 0 329 -83 3 368 .792156862745098 .819607843137255 .933333333333333 19 3
15 5 0 7 0 17 13 S74 20 313 3 0 0 378 367 10 0 0 0 0 0 0 0 0 0 0 0 0 0 0 0 0 0 8
4 23 312 Part9^Assem 2 rev x.37574 20 6 1 0 0 2 0 0 0 0 0 0 0 0 0 0 0 0 0 0 0 0
 0 0 0 1 0 
